<svg xmlns="http://www.w3.org/2000/svg" width="397" height="283" viewBox="0 0 397 283">
<g>
<path d="M 120.00 265.90 C174.53,230.92 204.04,206.18 225.05,177.86 C231.63,168.98 239.12,154.29 240.89,146.81 C243.37,136.32 241.45,125.31 236.35,120.79 C230.90,115.94 221.17,114.70 212.50,117.75 C207.60,119.47 197.83,127.70 196.78,131.00 C196.44,132.07 194.95,131.00 191.60,127.30 C180.62,115.14 164.54,112.71 154.12,121.63 C148.47,126.46 146.47,132.30 146.62,143.50 C146.74,151.85 147.68,156.09 151.51,165.50 C152.93,168.99 147.31,163.22 142.98,156.74 C135.42,145.41 132.79,132.11 136.00,121.39 C138.90,111.71 147.96,104.09 159.08,101.98 C169.91,99.93 183.09,105.91 191.09,116.50 C193.39,119.56 195.45,121.88 195.66,121.67 C195.87,121.46 197.50,119.27 199.27,116.80 C206.95,106.13 215.43,101.54 227.50,101.51 C234.24,101.50 236.39,101.94 241.16,104.28 C262.73,114.87 265.78,143.68 248.42,173.04 C240.81,185.93 233.44,195.30 221.25,207.61 C200.92,228.12 181.89,242.32 159.31,253.81 C146.30,260.43 129.68,266.45 121.50,267.50 L 116.50 268.14 L 120.00 265.90 ZM 117.21 250.93 C84.36,247.75 60.65,235.26 42.99,211.83 C27.25,190.94 20.17,164.35 21.33,130.50 C22.11,107.74 25.78,91.50 33.78,75.50 C44.21,54.59 60.45,38.71 81.27,29.02 C97.79,21.34 114.39,18.41 136.50,19.29 C151.92,19.90 160.80,21.48 174.79,26.11 C182.76,28.75 184.91,29.09 190.04,28.50 L 196.00 27.80 L 196.00 35.02 L 196.00 42.24 L 199.25 39.80 C216.86,26.61 236.35,20.38 263.22,19.32 C282.54,18.56 295.92,19.99 312.85,24.62 C320.89,26.82 327.43,28.00 331.60,28.00 C337.02,28.00 338.00,28.27 338.02,29.75 C338.02,30.71 338.69,41.40 339.51,53.50 C341.59,84.61 341.69,83.00 337.75,82.99 C334.55,82.98 334.45,82.83 331.00,73.30 C321.69,47.57 308.60,33.92 287.79,28.27 C279.05,25.90 256.96,25.91 248.00,28.29 C221.88,35.23 204.31,55.58 196.45,87.96 C195.18,93.21 193.85,99.69 193.49,102.37 L 192.84 107.24 L 189.67 104.19 C185.18,99.87 176.85,95.97 169.39,94.69 C165.87,94.09 163.00,93.21 163.00,92.73 C163.00,89.96 171.89,71.29 176.41,64.56 L 181.75 56.62 L 178.69 51.64 C167.96,34.21 148.68,25.12 125.00,26.33 C98.71,27.68 81.56,39.12 68.94,63.72 C63.92,73.51 60.61,83.88 57.76,98.81 C54.74,114.61 54.54,152.85 57.40,168.50 C63.98,204.59 77.37,225.86 100.50,236.96 C110.15,241.59 116.09,243.04 128.83,243.87 L 138.50 244.50 L 132.73 248.25 C129.56,250.31 126.63,251.94 126.23,251.86 C125.83,251.79 121.77,251.37 117.21,250.93 ZM 254.71 250.91 C243.48,249.72 236.57,248.34 227.50,245.45 C218.06,242.45 204.50,235.85 204.50,234.26 C204.50,233.65 207.36,230.56 210.85,227.39 C215.32,223.36 217.58,221.92 218.47,222.57 C219.16,223.08 222.32,225.59 225.49,228.15 C232.27,233.63 240.68,237.90 251.04,241.16 C257.64,243.23 260.46,243.50 275.50,243.50 C290.37,243.50 293.54,243.20 300.75,241.14 C309.77,238.56 316.53,234.36 318.04,230.40 C319.21,227.32 319.24,182.22 318.08,176.20 C316.51,168.07 310.90,164.39 298.50,163.34 C291.07,162.71 291.00,162.68 291.00,159.85 L 291.00 157.00 L 332.50 157.00 L 374.00 157.00 L 374.00 160.50 L 374.00 164.00 L 367.52 164.00 C358.62,164.00 353.44,166.22 350.96,171.09 C349.14,174.64 349.00,177.12 349.00,205.23 L 349.00 235.55 L 341.64 238.28 C312.48,249.13 281.04,253.69 254.71,250.91 ZM 177.95 208.78 C168.93,196.38 162.87,181.41 160.06,164.61 C157.97,152.15 156.48,131.23 157.45,128.15 C158.41,125.12 165.88,122.60 171.43,123.44 C177.01,124.27 184.37,129.17 188.08,134.50 C190.58,138.10 190.96,139.81 191.91,151.69 C193.03,165.71 195.98,181.20 199.13,189.62 L 201.04 194.73 L 193.09 202.48 C181.15,214.10 181.66,213.89 177.95,208.78 Z" fill="rgba(0,0,0,1)"/>
</g>
</svg>